<?xml version="1.0" standalone="no"?><svg xmlns="http://www.w3.org/2000/svg" xmlns:xlink="http://www.w3.org/1999/xlink" style="isolation:isolate" viewBox="0 0 345 100" width="345" height="100"><g id="null"><g id="XMLID_3_"><g id="XMLID_1_"><path d=" M 122.337 32.667 C 119.843 32.667 117.947 34.563 117.947 37.057 C 117.947 39.551 119.843 41.347 122.337 41.347 C 124.831 41.347 126.726 39.451 126.726 37.057 C 126.726 34.563 124.831 32.667 122.337 32.667 Z " fill="rgb(210,74,67)"/><path d=" M 123.035 42.943 L 121.838 42.943 C 120.042 42.943 118.745 44.339 118.745 46.135 L 118.745 77.36 C 118.745 79.155 120.042 80.452 121.838 80.452 L 123.035 80.452 C 124.831 80.452 126.127 79.155 126.127 77.36 L 126.127 46.135 C 126.127 44.339 124.731 42.943 123.035 42.943 Z " fill="rgb(210,74,67)"/><path d=" M 166.231 42.244 C 162.839 42.244 159.547 43.042 156.554 44.738 C 154.26 43.042 151.367 42.244 147.775 42.244 C 144.084 42.244 140.393 43.042 136.702 44.838 L 136.303 45.038 C 135.305 45.636 134.807 46.734 134.807 47.831 L 134.807 77.26 C 134.807 79.056 136.203 80.353 137.899 80.353 L 139.096 80.353 C 140.892 80.353 142.189 79.056 142.189 77.26 L 142.189 50.524 C 144.084 49.926 145.88 49.627 147.775 49.627 C 151.666 49.627 154.26 50.824 154.26 56.709 L 154.26 77.26 C 154.26 79.056 155.557 80.353 157.352 80.353 L 158.549 80.353 C 160.345 80.353 161.642 78.956 161.642 77.26 L 161.642 56.709 C 161.642 54.515 161.343 52.52 160.744 50.724 C 162.34 50.026 164.236 49.627 166.031 49.627 C 170.92 49.627 173.414 52.021 173.414 56.709 L 173.414 77.26 C 173.414 79.056 174.81 80.353 176.506 80.353 L 177.703 80.353 C 179.499 80.353 180.895 78.956 180.895 77.26 L 180.895 56.809 C 181.095 47.931 175.309 42.244 166.231 42.244 Z " fill="rgb(210,74,67)"/><path d=" M 216.41 44.738 C 212.918 43.242 208.23 42.344 204.139 42.344 C 194.064 42.344 188.278 47.831 188.278 57.408 L 188.278 64.092 C 188.278 73.569 194.263 79.255 204.139 79.255 C 206.434 79.255 208.728 78.856 211.023 78.258 L 211.023 78.657 C 211.023 80.951 210.524 82.647 209.427 83.744 C 208.23 84.941 206.234 85.54 203.541 85.54 C 200.249 85.54 197.655 84.443 194.862 81.849 C 194.164 81.151 193.266 80.851 192.368 80.951 C 192.368 80.951 190.472 81.45 189.275 83.545 C 188.477 85.041 189.076 86.438 189.874 87.236 C 193.864 91.127 198.353 93.022 203.441 93.022 C 212.819 93.022 218.405 87.735 218.405 78.756 L 218.405 47.831 C 218.505 46.334 217.707 45.137 216.41 44.738 Z  M 204.139 49.627 C 206.234 49.627 208.828 50.026 211.023 50.524 L 211.023 70.476 C 208.928 71.374 206.534 71.873 204.239 71.873 C 198.353 71.873 195.76 69.479 195.76 64.092 L 195.76 57.408 C 195.76 52.021 198.353 49.627 204.139 49.627 Z " fill="rgb(210,74,67)"/><path d=" M 255.615 73.07 L 237.16 73.07 L 241.649 68.282 C 251.026 58.306 257.212 51.622 257.212 43.641 C 257.212 37.057 252.523 29.874 242.347 29.874 C 236.262 29.874 231.075 32.368 226.685 37.456 L 226.286 38.054 C 225.488 39.551 226.087 40.748 226.585 41.546 L 227.483 42.643 C 228.381 43.541 229.478 43.641 229.977 43.641 L 231.374 43.441 L 232.072 42.643 C 235.364 38.952 238.457 37.356 242.347 37.356 C 247.834 37.356 249.73 40.648 249.73 43.741 C 249.73 48.928 244.243 54.814 235.863 63.693 L 225.987 74.167 C 225.488 74.666 224.889 75.464 224.889 76.661 L 224.889 77.459 C 224.889 77.659 224.889 77.859 224.989 78.058 L 225.189 78.756 C 225.688 79.854 226.785 80.652 228.082 80.652 L 255.516 80.652 C 257.311 80.652 258.608 79.355 258.608 77.559 L 258.608 76.462 C 258.808 74.367 257.411 73.07 255.615 73.07 Z " fill="rgb(210,74,67)"/><path d=" M 281.254 73.369 C 280.057 73.469 278.66 73.569 277.762 73.569 C 275.468 73.569 272.874 72.97 272.874 68.082 L 272.874 50.425 L 280.655 50.425 C 282.351 50.425 283.748 49.028 283.748 47.232 L 283.748 46.135 C 283.748 44.439 282.351 43.042 280.655 43.042 L 272.874 43.042 L 272.874 38.054 L 272.774 37.356 C 272.375 35.86 271.178 34.862 269.682 34.862 L 268.484 34.862 C 266.689 34.862 265.392 36.159 265.392 37.955 L 265.392 67.982 C 265.392 75.863 270.081 80.851 277.762 80.851 C 278.66 80.851 280.555 80.752 281.752 80.652 L 282.151 80.552 C 283.648 80.153 284.645 78.956 284.645 77.459 L 284.645 76.362 C 284.645 74.666 283.249 73.27 281.254 73.369 Z " fill="rgb(210,74,67)"/><path d=" M 317.766 47.532 C 318.464 46.534 318.663 45.337 318.065 44.339 L 316.968 42.643 L 313.775 42.643 C 312.778 42.643 311.68 43.242 311.082 44.04 L 303.001 54.914 L 294.921 44.04 C 294.322 43.142 293.325 42.544 292.227 42.544 L 288.935 42.643 L 288.137 43.94 C 287.539 44.838 287.539 46.035 288.037 47.033 L 298.313 60.899 L 287.539 75.165 L 287.239 75.564 C 286.74 76.562 286.74 77.659 287.339 78.657 L 288.436 80.053 L 291.529 80.053 C 292.726 80.053 293.724 79.455 294.322 78.557 L 303.001 66.985 L 311.68 78.557 C 312.279 79.455 313.276 80.053 314.474 80.053 L 316.07 80.053 L 318.065 79.854 L 319.561 76.462 L 307.79 60.999 L 317.766 47.532 Z " fill="rgb(210,74,67)"/><path d=" M 338.615 73.369 C 337.418 73.469 336.022 73.569 335.124 73.569 C 332.829 73.569 330.236 72.97 330.236 68.082 L 330.236 50.425 L 338.017 50.425 C 339.713 50.425 341.109 49.028 341.109 47.232 L 341.109 46.135 C 341.109 44.439 339.713 43.042 338.017 43.042 L 330.236 43.042 L 330.236 38.054 L 330.136 37.356 C 329.737 35.86 328.54 34.862 327.043 34.862 L 325.846 34.862 C 324.051 34.862 322.754 36.159 322.754 37.955 L 322.754 67.982 C 322.754 75.863 327.442 80.851 335.124 80.851 C 336.022 80.851 337.917 80.752 339.114 80.652 L 339.513 80.552 C 341.01 80.153 342.007 78.956 342.007 77.459 L 342.007 76.362 C 342.007 74.666 340.81 73.27 338.615 73.369 Z " fill="rgb(210,74,67)"/></g><g id="XMLID_2_"><path d=" M 49.213 30.572 C 52.804 33.066 59.289 33.964 66.471 34.962 C 62.281 24.387 62.581 5.932 50.31 2.54 C 42.728 0.445 35.546 4.735 30.258 10.421 C 37.341 16.107 42.928 26.283 49.213 30.572 Z " fill="rgb(245,209,69)"/><path d=" M 97.995 63.493 C 97.796 63.294 97.596 62.994 97.397 62.795 C 97.197 63.493 96.898 64.092 96.599 64.79 C 90.114 79.155 68.067 90.129 53.502 93.72 C 49.113 94.818 44.524 95.217 40.035 95.017 C 41.232 95.316 42.329 95.715 43.526 95.915 C 58.091 99.107 82.832 99.008 95.002 88.932 C 103.881 81.55 104.28 72.072 97.995 63.493 Z " fill="rgb(210,74,67)"/><path d=" M 97.397 62.795 C 100.888 53.118 96.898 45.237 88.019 40.648 C 81.635 37.356 73.654 36.059 66.371 35.062 C 66.671 35.86 67.07 36.658 67.469 37.456 C 71.659 44.938 88.718 51.622 97.397 62.795 Z " fill="rgb(245,209,69)"/><path d=" M 17.988 78.457 C 14.995 72.771 13.998 66.187 13.898 59.702 C 13.698 45.337 17.29 30.972 24.373 18.402 C 25.869 15.808 27.864 13.015 30.159 10.521 C 26.667 7.728 22.776 6.131 18.287 7.029 C 7.214 9.124 2.625 22.891 2.126 32.667 C 1.328 47.033 4.321 61.598 10.905 74.367 C 13.898 80.153 17.589 85.64 22.776 89.431 C 27.764 93.022 33.75 94.718 39.835 95.117 C 30.857 92.224 22.477 86.737 17.988 78.457 Z " fill="rgb(231,162,68)"/><path d=" M 53.502 93.72 C 67.968 90.129 90.114 79.155 96.599 64.79 C 96.898 64.092 97.197 63.493 97.397 62.795 C 88.718 51.722 71.659 44.938 67.469 37.456 C 67.07 36.758 66.671 35.959 66.371 35.062 C 59.189 34.064 52.704 33.166 49.113 30.672 C 42.928 26.383 37.242 16.107 30.159 10.621 C 27.864 13.115 25.869 15.908 24.373 18.502 C 17.29 30.972 13.599 45.437 13.898 59.802 C 13.998 66.286 14.895 72.871 17.988 78.557 C 22.377 86.837 30.857 92.324 39.935 95.117 C 44.524 95.217 49.113 94.818 53.502 93.72 Z " fill="rgb(219,120,67)"/></g></g></g></svg>
